<?xml version="1.0" encoding="UTF-8"?>
<svg width="35px" height="28px" viewBox="0 0 40 28" version="1.1" xmlns="http://www.w3.org/2000/svg" xmlns:xlink="http://www.w3.org/1999/xlink">
    <title>dashboard icon</title>
    <desc>Created with Sketch.</desc>
    <defs></defs>
    <g id="ooto-Productivity-Dashboards" stroke="none" stroke-width="1" fill="none" fill-rule="evenodd">
        <g id="Events-Tab" transform="translate(-31.000000, -151.000000)" fill="#000000">
            <g id="main-nav" transform="translate(-6.000000, -61.000000)">
                <g id="dashboard-icon" transform="translate(37.000000, 212.000000)">
                    <path d="M3.42818182,6.89358763 L20,12.2220047 L36.5709091,6.89358763 L20,1.56517057 L3.42818182,6.89358763 Z M20,13.7873641 C19.8881818,13.7873641 19.7763636,13.7707435 19.6709091,13.7367468 L0.58,7.59845267 C0.23,7.48513031 0,7.20560184 0,6.89358763 C0,6.58157342 0.23,6.30204495 0.58,6.18872259 L19.6709091,0.0504284473 C19.8827273,-0.0168094824 20.1163636,-0.0168094824 20.3281818,0.0504284473 L39.4190909,6.18872259 C39.7690909,6.30204495 40,6.58157342 40,6.89358763 C40,7.20560184 39.7690909,7.48513031 39.4190909,7.59845267 L20.3281818,13.7367468 C20.2227273,13.7707435 20.1109091,13.7873641 20,13.7873641 L20,13.7873641 Z" id="Fill-1"></path>
                    <path d="M20,21.4470109 C19.8890909,21.4470109 19.7772727,21.4303825 19.6718182,21.3963699 L0.580909091,15.2552077 C0.230909091,15.1418324 0,14.8621733 0,14.5500133 C0,14.2378533 0.230909091,13.9581942 0.580909091,13.8448189 L10.1263636,10.7746157 C10.5945455,10.6242045 11.1209091,10.8169425 11.3027273,11.2061977 C11.4836364,11.5962087 11.2509091,12.0338374 10.7827273,12.1842486 L3.42818182,14.5500133 L20,19.88092 L36.5718182,14.5500133 L29.2172727,12.1842486 C28.7490909,12.0338374 28.5163636,11.5962087 28.6972727,11.2061977 C28.8790909,10.8176983 29.4036364,10.6249603 29.8736364,10.7746157 L39.4190909,13.8448189 C39.7690909,13.9581942 40,14.2378533 40,14.5500133 C40,14.8621733 39.7690909,15.1418324 39.4190909,15.2552077 L20.3281818,21.3963699 C20.2227273,21.4303825 20.1109091,21.4470109 20,21.4470109" id="Fill-4"></path>
                    <path d="M20,27.5747283 C19.8890909,27.5747283 19.7772727,27.5578783 19.6718182,27.5234124 L0.580909091,21.300402 C0.230909091,21.1855156 0,20.9021293 0,20.5858089 C0,20.2694885 0.230909091,19.9861022 0.580909091,19.8712158 L9.67181818,16.9033186 C10.1409091,16.7501368 10.6663636,16.9462095 10.8481818,17.3414185 C11.0290909,17.7350957 10.7963636,18.178557 10.3281818,18.3325047 L3.42727273,20.585043 L20,25.9877649 L36.5727273,20.585043 L29.6718182,18.3325047 C29.2036364,18.178557 28.9709091,17.7350957 29.1518182,17.3414185 C29.3336364,16.9462095 29.86,16.7509027 30.3281818,16.9033186 L39.4190909,19.8712158 C39.7690909,19.9861022 40,20.2694885 40,20.5858089 C40,20.9021293 39.7690909,21.1855156 39.4190909,21.300402 L20.3281818,27.5234124 C20.2227273,27.5578783 20.1109091,27.5747283 20,27.5747283" id="Fill-6"></path>
                </g>
            </g>
        </g>
    </g>
</svg>